# xmcd CD database file
#
# Track frame offsets:
#	150
#	18559
#	36878
#	49986
#	65235
#	78474
#	96150
#	116336
#	134114
#	150531
#	165292
#	181542
#	197684
#	211567
#	228618
#	245879
#	263800
#	282454
#	300508
#	316482
#	334339
#
# Disc length: 4668 seconds
#
# Revision: 25
# Processed by: cddbd v1.5.2PL0 Copyright (c) Steve Scherf et al.
# Submitted via: CDex 1.70beta2
#
DISCID=2e123a15
DTITLE=Shania Twain - Shania Twain Greatest Hits
DYEAR=2004
DGENRE=Country
TTITLE0=Shania Twain - Forever and for always
TTITLE1=I'm gonna getcha good!
TTITLE2=Up!
TTITLE3=Ka-Ching!
TTITLE4=Come on over
TTITLE5=Man! I feel like a woman
TTITLE6=That don't impress me much
TTITLE7=From this moment on
TTITLE8=Honey, I'm home
TTITLE9=You're still the one
TTITLE10=Don't be stupid (You know I love you)
TTITLE11=Love gets me every time
TTITLE12=No one needs to know
TTITLE13=You win my love
TTITLE14=(If you're not in it for love) I'm outta here!
TTITLE15=The woman in me (need the man in you)
TTITLE16=Any man of mine
TTITLE17=Whose red have your boots been under
TTITLE18=Party for two (with Mark McGrath)
TTITLE19=Don't
TTITLE20=I ain't no quitter
EXTD=YEAR: 2004
EXTT0=
EXTT1=
EXTT2=
EXTT3=
EXTT4=
EXTT5=
EXTT6=
EXTT7=
EXTT8=
EXTT9=
EXTT10=
EXTT11=
EXTT12=
EXTT13=
EXTT14=
EXTT15=
EXTT16=
EXTT17=
EXTT18=
EXTT19=
EXTT20=
PLAYORDER=
